:SAMPLES-PER-SECOND 30
:FULLY-SPECIFIED
:DEGREES
79
root  -19.6836 39.2712 -36.078 -0.801482 -57.6555 -6.11803
RightUpLeg  -16.5703 -5.7222 -8.31888
RightLeg  2.97197 12.2938 0.063621
RightFoot  -2.99348 -0.970058 12.9468
RightToes  -1.74624e-010 0 -3.6325e-017
Spine  1.0805 -3.49682 -6.04279
Spine1  12.4647 -5.37559 5.23795
HEad  0.455363 -18.2029 -0.931168
LeftShoulder1  8.55222 -12.0654 -47.9427
LeftArm  -7.85675 8.34846 -30.8918
LeftForeArm  32.2502 -40.4704 -7.47577
LeftHand  -0.244104 0.0205437 5.32207
RightShoulder  6.23501 9.24917 42.5809
RightArm  -0.460037 -21.5047 28.9371
RightForeArm  11.5949 8.55814 8.06035
RightHand  -0.89904 1.89913 -14.4493
LeftUpLeg  10.9069 1.69741 -7.15695
LeftLeg  16.7925 -1.6 -0.539218
LeftFoot  -19.0365 1.1701 15.5819
LeftToes  1.71891e-010 -1.5102e-010 2.10556e-011
80
root  -21.2085 39.0006 -35.5695 -0.961054 -54.3808 -5.87284
RightUpLeg  -16.4156 -6.22246 -8.25791
RightLeg  1.26422 15.9121 0.290481
RightFoot  -3.64234 -0.990483 14.2669
RightToes  -1.74624e-010 0 -3.6325e-017
Spine  0.70869 -3.80227 -6.54623
Spine1  12.8146 -5.91092 6.02212
HEad  -0.0298399 -19.7001 -0.586382
LeftShoulder1  8.72997 -12.3502 -48.0636
LeftArm  -7.64275 7.00307 -31.2598
LeftForeArm  32.1343 -40.114 -7.37776
LeftHand  -0.244104 0.0205437 5.32207
RightShoulder  6.30481 9.3452 42.746
RightArm  -2.514 -20.6685 28.5949
RightForeArm  12.5788 6.67733 7.65481
RightHand  -0.907057 1.84684 -14.6751
LeftUpLeg  12.8294 -0.284356 -6.61279
LeftLeg  18.3795 -2.5906 -0.483217
LeftFoot  -20.9148 1.35925 14.6281
LeftToes  1.71891e-010 -1.5102e-010 2.10556e-011
81
root  -22.6997 38.7443 -35.0121 -0.309008 -51.7234 -6.49382
RightUpLeg  -17.3654 -4.97281 -7.53888
RightLeg  5.57609 15.2468 0.97491
RightFoot  -0.795921 -1.32763 14.2452
RightToes  -1.74624e-010 0 -3.6325e-017
Spine  0.283781 -3.86824 -5.3692
Spine1  13.2568 -5.92114 5.82227
HEad  -0.550428 -20.5083 -0.32749
LeftShoulder1  8.8423 -12.5229 -48.1592
LeftArm  -7.63814 6.07679 -31.5049
LeftForeArm  31.7821 -38.9494 -7.0593
LeftHand  -0.244104 0.0205437 5.32207
RightShoulder  6.38354 9.42061 43.0446
RightArm  -3.5627 -19.8376 28.2339
RightForeArm  11.8267 5.73315 7.35727
RightHand  -0.954853 2.01278 -15.0976
LeftUpLeg  14.2541 -3.89391 -6.29652
LeftLeg  20.6046 -0.968468 0.021986
LeftFoot  -22.6139 1.42669 13.0727
LeftToes  1.71891e-010 -1.5102e-010 2.10556e-011
82
root  -24.1784 38.4697 -34.4001 0.460355 -49.5157 -7.69637
RightUpLeg  -18.4321 -1.51409 -7.0565
RightLeg  12.3633 11.2288 1.8056
RightFoot  2.84818 -1.81535 14.6711
RightToes  -1.74624e-010 0 -3.6325e-017
Spine  0.530895 -3.83715 -2.72559
Spine1  13.1973 -5.51517 4.56652
HEad  -1.15754 -20.1022 -0.351403
LeftShoulder1  8.94183 -12.5594 -48.5943
LeftArm  -8.20385 5.84876 -31.3255
LeftForeArm  31.3993 -37.3142 -6.62342
LeftHand  -0.244104 0.0205437 5.32207
RightShoulder  6.4943 9.52289 43.4714
RightArm  -3.58568 -18.7146 27.7287
RightForeArm  10.2247 5.51862 7.46457
RightHand  -1.02229 2.21707 -15.7252
LeftUpLeg  14.641 -6.29393 -5.1931
LeftLeg  25.4088 -0.12147 0.249679
LeftFoot  -23.4268 1.13961 9.3831
LeftToes  1.71891e-010 -1.5102e-010 2.10556e-011
83
root  -25.5665 38.2795 -33.7458 1.38365 -46.7155 -9.53241
RightUpLeg  -18.461 0.821525 -6.41092
RightLeg  18.269 7.41622 2.54389
RightFoot  2.90321 -1.88346 15.1536
RightToes  -1.74624e-010 0 -3.6325e-017
Spine  1.40731 -4.04927 1.02819
Spine1  12.9584 -5.20629 2.98353
HEad  -1.89962 -18.2828 -1.02463
LeftShoulder1  9.10345 -12.6458 -49.2104
LeftArm  -9.05626 6.15776 -31.1182
LeftForeArm  30.5351 -35.0079 -6.06198
LeftHand  -0.244104 0.0205437 5.32207
RightShoulder  6.58748 9.69381 43.5282
RightArm  -2.81089 -17.2885 27.6304
RightForeArm  9.05725 6.08888 7.80734
RightHand  -1.0451 2.11133 -16.2871
LeftUpLeg  12.6368 -6.87056 -2.37694
LeftLeg  34.0114 -1.24616 -0.581196
LeftFoot  -19.9562 0.462826 4.19074
LeftToes  1.71891e-010 -1.5102e-010 2.10556e-011
84
root  -26.7992 38.2196 -33.0947 2.5341 -42.68 -11.4664
RightUpLeg  -17.5728 -1.65204 -4.61094
RightLeg  22.706 6.65074 2.83898
RightFoot  -0.759761 -1.37409 14.6712
RightToes  -1.74624e-010 0 -3.6325e-017
Spine  2.10437 -4.44672 5.00644
Spine1  12.933 -5.08739 2.05617
HEad  -2.40619 -15.7337 -2.05595
LeftShoulder1  9.26952 -12.8799 -49.3945
LeftArm  -8.99627 6.52922 -31.5544
LeftForeArm  28.6265 -31.6726 -5.34123
LeftHand  -0.244104 0.0205437 5.32207
RightShoulder  6.60508 9.89316 42.9639
RightArm  -1.53973 -15.9629 28.1424
RightForeArm  8.63533 7.62157 8.13651
RightHand  -0.995177 1.7144 -16.356
LeftUpLeg  7.24627 -6.62587 1.43665
LeftLeg  45.473 -1.36051 -0.987223
LeftFoot  -10.5934 0.0398441 0.884205
LeftToes  1.71891e-010 -1.5102e-010 2.10556e-011
85
root  -27.9218 38.2254 -32.4803 3.16506 -38.1936 -12.2205
RightUpLeg  -16.3261 -5.07216 -3.44655
RightLeg  25.7313 5.6321 2.724
RightFoot  -4.85695 -0.825881 13.9626
RightToes  -1.74624e-010 0 -3.6325e-017
Spine  2.43971 -4.48312 7.66326
Spine1  12.7603 -4.71487 1.88153
HEad  -2.37724 -13.2866 -2.64846
LeftShoulder1  9.34671 -13.1079 -49.1222
LeftArm  -7.19622 6.6912 -32.3866
LeftForeArm  25.8804 -27.7487 -4.57966
LeftHand  -0.244104 0.0205437 5.32207
RightShoulder  6.58824 10.0595 42.2875
RightArm  0.695097 -14.7753 28.6203
RightForeArm  7.34225 9.93578 8.24363
RightHand  -0.974953 1.55405 -16.3893
LeftUpLeg  -0.231139 -5.31765 4.41039
LeftLeg  56.5136 0.652668 1.66947
LeftFoot  -0.56876 -0.114932 1.12357
LeftToes  1.71891e-010 -1.5102e-010 2.10556e-011
86
root  -28.9978 38.4152 -31.8536 2.84446 -34.3821 -11.4355
RightUpLeg  -14.1294 -7.77859 -3.53009
RightLeg  26.3806 4.66809 2.28635
RightFoot  -7.14015 -0.56088 13.9167
RightToes  -1.74624e-010 0 -3.6325e-017
Spine  2.91512 -3.92052 8.37155
Spine1  12.1321 -3.93481 1.91848
HEad  -2.13155 -10.85 -2.74666
LeftShoulder1  9.36173 -13.1619 -49.0421
LeftArm  -4.52917 6.9089 -32.6417
LeftForeArm  23.3853 -24.3925 -4.00049
LeftHand  -0.244104 0.0205437 5.32207
RightShoulder  6.5915 10.1641 41.9635
RightArm  3.76648 -13.1487 28.6385
RightForeArm  4.37291 12.3085 8.08887
RightHand  -1.09758 1.96298 -17.3936
LeftUpLeg  -7.28912 -2.13425 5.49858
LeftLeg  64.1158 2.51635 6.23431
LeftFoot  3.29881 -0.360411 2.71159
LeftToes  1.71891e-010 -1.5102e-010 2.10556e-011
87
root  -30.0483 38.8179 -31.1605 1.9267 -31.1083 -9.71609
RightUpLeg  -10.7783 -10.4368 -4.63514
RightLeg  24.86 4.57073 2.06042
RightFoot  -8.33611 -0.427799 14.0574
RightToes  -1.74624e-010 0 -3.6325e-017
Spine  3.53494 -3.16719 7.65589
Spine1  11.363 -3.13816 1.74118
HEad  -2.06388 -7.92133 -3.16673
LeftShoulder1  9.38655 -13.1007 -49.3532
LeftArm  -2.91495 7.72619 -31.9403
LeftForeArm  22.3234 -22.2763 -3.78537
LeftHand  -0.244104 0.0205437 5.32207
RightShoulder  6.5569 10.1779 41.6817
RightArm  6.89508 -10.8617 28.7282
RightForeArm  0.810326 14.394 7.72364
RightHand  -1.31116 2.61313 -19.0906
LeftUpLeg  -12.9745 2.29349 4.72582
LeftLeg  67.1222 2.91014 8.25479
LeftFoot  1.36105 -0.402745 3.51937
LeftToes  1.71891e-010 -1.5102e-010 2.10556e-011
88
root  -31.0389 39.2223 -30.3974 1.37388 -27.5221 -8.222
RightUpLeg  -7.05974 -14.0389 -5.89612
RightLeg  22.5743 4.92099 2.10194
RightFoot  -9.44221 -0.29393 13.7689
RightToes  -1.74624e-010 0 -3.6325e-017
Spine  3.89803 -2.63595 7.06869
Spine1  10.7437 -2.57616 1.47059
HEad  -2.0986 -4.77098 -4.12112
LeftShoulder1  9.40143 -13.0854 -49.4771
LeftArm  -2.76878 9.348 -30.8296
LeftForeArm  22.586 -21.0044 -3.89454
LeftHand  -0.244104 0.0205437 5.32207
RightShoulder  6.41329 10.0727 41.0374
RightArm  9.93563 -8.73383 29.3686
RightForeArm  -2.61929 16.9427 6.89235
RightHand  -1.41989 2.9158 -19.9083
LeftUpLeg  -17.9361 6.05665 3.06408
LeftLeg  66.0621 2.22153 6.24822
LeftFoot  -1.31681 -0.210943 2.49159
LeftToes  1.71891e-010 -1.5102e-010 2.10556e-011
89
root  -31.9927 39.5438 -29.559 1.32734 -23.5642 -7.11316
RightUpLeg  -3.14239 -16.7055 -7.18396
RightLeg  19.776 3.70402 2.33341
RightFoot  -10.1081 -0.215322 13.5541
RightToes  -1.74624e-010 0 -3.6325e-017
Spine  3.92391 -2.17607 6.78688
Spine1  10.0449 -2.07511 1.12459
HEad  -1.95178 -2.1741 -4.9476
LeftShoulder1  9.33295 -13.1075 -49.051
LeftArm  -2.70431 11.3492 -29.77
LeftForeArm  22.9983 -19.8652 -4.08937
LeftHand  -0.244104 0.0205437 5.32207
RightShoulder  6.22545 9.89731 40.3002
RightArm  12.0071 -7.64582 30.0135
RightForeArm  -5.40494 20.7512 5.69989
RightHand  -1.31321 2.56713 -19.2088
LeftUpLeg  -22.4795 8.52972 1.00573
LeftLeg  62.0693 1.74785 4.17477
LeftFoot  -2.23444 -0.0707552 1.06665
LeftToes  1.71891e-010 -1.5102e-010 2.10556e-011
90
root  -32.915 39.8141 -28.6658 1.33394 -19.6891 -6.02037
RightUpLeg  1.10769 -15.9412 -8.41399
RightLeg  16.1601 -0.575876 2.82112
RightFoot  -10.1576 -0.214445 13.9931
RightToes  -1.74624e-010 0 -3.6325e-017
Spine  3.99688 -1.59985 6.19366
Spine1  9.28041 -1.50015 0.718937
HEad  -1.78884 -0.311326 -5.32838
LeftShoulder1  9.17167 -13.0373 -48.4041
LeftArm  -2.52959 13.1077 -28.5729
LeftForeArm  23.4051 -18.6496 -4.38064
LeftHand  -0.244104 0.0205437 5.32207
RightShoulder  6.11329 9.75902 39.9585
RightArm  10.5127 -7.35173 29.8306
RightForeArm  -5.68267 25.5059 5.65881
RightHand  -1.12158 1.7708 -18.2531
LeftUpLeg  -26.0878 10.3766 -1.38056
LeftLeg  55.7899 2.45807 4.36257
LeftFoot  -3.26806 -0.0725893 1.34466
LeftToes  1.71891e-010 -1.5102e-010 2.10556e-011
91
root  -33.7755 39.9597 -27.7319 1.37821 -16.2272 -5.0926
RightUpLeg  4.95099 -13.6246 -8.89688
RightLeg  12.9133 -5.87892 3.42196
RightFoot  -10.474 -0.180252 14.2487
RightToes  -1.74624e-010 0 -3.6325e-017
Spine  4.15773 -0.986524 5.66986
Spine1  8.82772 -0.8781 0.340833
HEad  -1.95628 1.04247 -5.68348
LeftShoulder1  8.96176 -12.827 -47.8994
LeftArm  -2.5985 14.4584 -27.0145
LeftForeArm  23.5033 -17.748 -4.62893
LeftHand  -0.244104 0.0205437 5.32207
RightShoulder  6.09301 9.69617 40.0204
RightArm  7.18509 -7.00739 28.9624
RightForeArm  -5.31677 30.5175 6.95713
RightHand  -1.01874 1.06217 -18.3643
LeftUpLeg  -28.5085 11.6709 -3.59418
LeftLeg  47.5651 3.5112 4.55328
LeftFoot  -4.85508 -0.112794 2.48645
LeftToes  1.71891e-010 -1.5102e-010 2.10556e-011
92
root  -34.559 39.9608 -26.736 1.70145 -13.5572 -4.32659
RightUpLeg  7.90847 -11.9736 -8.76471
RightLeg  10.6165 -10.1746 3.82101
RightFoot  -11.2609 -0.0868557 13.613
RightToes  -1.74624e-010 0 -3.6325e-017
Spine  4.05275 -0.315104 5.56577
Spine1  8.78163 -0.0946645 -0.375584
HEad  -2.41218 1.95422 -6.14685
LeftShoulder1  8.73491 -12.5388 -47.5187
LeftArm  -2.80518 15.7351 -25.1469
LeftForeArm  22.8068 -17.4892 -4.7011
LeftHand  -0.244104 0.0205437 5.32207
RightShoulder  6.11466 9.68257 40.2209
RightArm  4.69949 -6.23759 28.0407
RightForeArm  -6.36012 35.046 8.24037
RightHand  -1.01559 0.81392 -19.0119
LeftUpLeg  -29.9317 12.1357 -5.3186
LeftLeg  37.5569 3.65866 3.39933
LeftFoot  -4.84676 -0.12556 2.73785
LeftToes  1.71891e-010 -1.5102e-010 2.10556e-011
93
root  -35.2672 39.8895 -25.6807 2.25612 -11.877 -3.45955
RightUpLeg  10.4194 -11.0861 -8.64609
RightLeg  8.37384 -12.792 4.0527
RightFoot  -11.9963 -0.00583885 13.1588
RightToes  -1.74624e-010 0 -3.6325e-017
Spine  3.79095 0.431958 5.53214
Spine1  8.88577 0.943093 -1.7424
HEad  -2.97227 2.57103 -6.28368
LeftShoulder1  8.51183 -12.2347 -47.1925
LeftArm  -3.05477 17.2468 -23.0855
LeftForeArm  21.5877 -17.5816 -4.66562
LeftHand  -0.244104 0.0205437 5.32207
RightShoulder  6.17436 9.73091 40.4869
RightArm  2.59241 -5.14126 27.3266
RightForeArm  -6.84442 38.3207 9.25822
RightHand  -0.995224 0.810532 -18.642
LeftUpLeg  -30.5707 12.5883 -6.94799
LeftLeg  26.2739 2.9475 2.06831
LeftFoot  -3.02007 -0.167878 2.54814
LeftToes  1.71891e-010 -1.5102e-010 2.10556e-011
